<mxfile host="app.diagrams.net" modified="2024-06-21T12:05:50.574Z" agent="Mozilla/5.0 (Windows NT 10.0; Win64; x64) AppleWebKit/537.36 (KHTML, like Gecko) Chrome/126.0.0.0 Safari/537.36 Edg/126.0.0.0" version="24.2.3" etag="1WVp7IPqrf76Ep7FRBvo" type="github">
  <diagram name="Page-1" id="qMTDcR4FUfc1VGbbGrV1">
    <mxGraphModel>
      <root>
        <mxCell id="0" />
        <mxCell id="1" parent="0" />
      </root>
    </mxGraphModel>
  </diagram>
</mxfile>
